<?xml version="1.0" standalone="no"?>
<!DOCTYPE svg PUBLIC "-//W3C//DTD SVG 20010904//EN"
 "http://www.w3.org/TR/2001/REC-SVG-20010904/DTD/svg10.dtd">
<svg version="1.0" xmlns="http://www.w3.org/2000/svg"
 width="941.000000pt" height="941.000000pt" viewBox="0 0 941.000000 941.000000"
 preserveAspectRatio="xMidYMid meet">
<metadata>
Created by potrace 1.14, written by Peter Selinger 2001-2017
</metadata>
<g transform="translate(0.000000,941.000000) scale(0.100000,-0.100000)"
fill="#000000" stroke="none">
<path d="M3303 8430 c-271 -59 -541 -204 -768 -412 -169 -155 -314 -333 -427
-521 -29 -49 -57 -89 -63 -90 -5 -1 -19 17 -30 40 -11 23 -26 42 -32 43 -7 0
-54 -42 -105 -93 -196 -195 -326 -443 -359 -682 l-13 -90 -90 -95 c-231 -243
-448 -561 -597 -875 -131 -278 -204 -529 -230 -800 l-12 -120 -64 -70 c-110
-118 -179 -287 -198 -481 -8 -89 -4 -95 52 -78 42 13 113 19 113 11 0 -2 -9
-29 -19 -60 -75 -218 -36 -589 89 -838 17 -35 40 -75 51 -88 l20 -24 32 30
c42 40 117 93 131 93 8 0 11 -51 11 -163 1 -112 6 -190 18 -252 56 -285 180
-528 330 -644 l57 -45 67 67 c37 37 70 67 73 67 3 -1 20 -34 39 -74 68 -150
238 -340 435 -486 508 -377 1299 -642 2181 -730 176 -18 717 -24 910 -11 1105
77 2060 462 2763 1113 40 38 77 68 81 68 10 0 46 -125 62 -215 7 -38 15 -73
19 -78 3 -4 37 31 74 78 223 281 405 647 490 983 112 440 115 932 9 1370 -13
57 -22 106 -20 109 3 2 45 -12 93 -32 83 -34 127 -57 213 -108 l34 -21 -7 60
c-11 98 -55 301 -93 434 -139 486 -431 1012 -739 1330 l-82 85 42 130 c104
315 264 575 490 800 162 161 327 264 479 300 85 20 200 19 265 -4 l52 -18 0
46 c0 153 -101 327 -265 456 -203 161 -479 269 -845 331 -130 22 -494 30 -657
15 -559 -53 -1100 -275 -1508 -619 l-70 -59 -22 99 c-40 177 -118 303 -237
380 l-59 38 -56 -53 c-145 -137 -338 -214 -880 -348 -179 -44 -366 -93 -414
-110 -49 -16 -89 -29 -90 -29 -1 0 -2 46 -2 103 0 86 -4 109 -22 144 l-23 41
-102 -53 c-117 -59 -245 -111 -254 -102 -20 20 101 235 185 329 56 63 173 140
249 164 34 10 62 24 62 30 0 16 -52 83 -101 131 -61 58 -150 109 -244 140
-112 36 -335 42 -472 13z m-177 -622 l-45 -83 -153 -52 c-84 -29 -157 -52
-163 -52 -16 0 74 75 160 133 69 47 227 136 241 136 2 0 -16 -37 -40 -82z
m4889 -137 c-390 -188 -829 -514 -1050 -781 -32 -38 -60 -68 -62 -66 -10 10
31 159 61 223 48 99 88 157 163 230 l63 61 -62 21 c-84 27 -172 47 -292 65
-54 8 -100 17 -103 19 -2 3 51 27 119 55 359 147 715 218 1098 221 l165 1
-100 -49z m-2636 -335 c21 -115 8 -270 -33 -383 -15 -42 -15 -43 7 -43 12 0
112 16 222 35 110 20 247 42 305 51 111 16 356 22 428 9 l42 -7 -34 -46 c-86
-119 -126 -248 -129 -417 -1 -60 2 -135 6 -165 l8 -56 177 23 c97 12 290 36
427 53 138 17 280 37 318 44 l67 13 0 -31 c0 -88 -76 -278 -166 -413 l-56 -84
106 -110 c330 -344 534 -869 601 -1548 l6 -64 -68 61 c-37 33 -101 81 -141
105 -73 45 -217 105 -228 95 -3 -3 13 -57 35 -121 227 -660 186 -1353 -111
-1874 -23 -40 -45 -73 -50 -73 -4 0 -8 20 -8 46 0 130 -88 356 -188 483 l-19
23 -12 -62 c-16 -82 -74 -247 -116 -330 -72 -144 -175 -281 -309 -415 -183
-181 -376 -314 -616 -422 -147 -66 -283 -116 -273 -100 5 6 45 68 91 136 92
139 169 289 207 400 14 41 24 76 22 77 -1 2 -41 -31 -87 -72 -234 -207 -525
-355 -877 -445 -233 -59 -630 -110 -859 -109 l-79 1 70 27 c82 33 185 92 272
155 65 49 206 177 200 184 -2 2 -46 -8 -98 -22 -123 -32 -335 -70 -479 -86
-164 -18 -505 -16 -678 5 -489 57 -921 235 -1232 509 -132 116 -233 243 -141
178 16 -12 64 -38 106 -58 97 -45 141 -47 214 -8 63 35 214 160 292 242 l57
59 98 -105 c256 -271 530 -442 774 -481 36 -5 71 -10 77 -10 23 0 174 142 254
238 43 52 95 127 116 167 l37 72 90 -42 c144 -68 301 -116 486 -151 133 -25
440 -30 580 -10 285 41 554 143 799 301 l93 60 -6 125 c-5 129 -26 260 -52
343 -9 27 -14 49 -13 50 2 2 33 16 69 32 218 100 432 297 560 515 29 49 31 57
21 91 -18 59 -103 179 -172 243 -69 64 -165 115 -264 141 -91 23 -334 20 -350
-5 -2 -4 17 -21 43 -38 95 -61 188 -180 217 -276 l13 -44 -46 -47 c-110 -110
-351 -235 -675 -350 l-117 -41 26 -35 c77 -102 132 -260 141 -405 l6 -92 -109
-25 c-272 -65 -499 -58 -749 20 -225 71 -478 239 -631 421 -31 37 -60 68 -64
70 -4 1 -20 -28 -36 -65 -39 -92 -157 -292 -227 -385 -31 -42 -98 -115 -148
-163 -104 -99 -95 -97 -218 -39 -204 96 -389 295 -527 569 l-51 101 -37 -73
c-110 -213 -308 -449 -425 -506 l-54 -27 -40 23 c-140 79 -277 336 -320 605
-6 39 -15 72 -18 72 -13 0 -214 -187 -253 -234 -20 -25 -44 -46 -52 -46 -21 0
-100 112 -124 178 -38 99 -53 213 -47 360 l4 132 -66 0 c-83 0 -131 -13 -166
-46 -35 -32 -39 -26 -55 78 -28 180 20 366 132 510 l45 58 6 137 c21 449 176
853 469 1219 34 43 120 138 190 209 l126 130 -10 50 c-18 93 11 300 59 414 14
33 17 34 27 17 43 -71 94 -131 147 -170 33 -25 65 -46 69 -46 5 0 14 17 20 38
23 70 90 187 152 265 133 169 329 286 521 313 l48 6 -35 -63 c-19 -35 -41 -88
-50 -118 -16 -53 -22 -131 -10 -131 3 0 20 11 37 24 63 48 157 97 347 181 107
47 227 108 268 135 42 28 78 48 81 45 13 -14 2 -156 -17 -232 -21 -78 -28
-133 -17 -133 3 0 22 8 43 19 123 63 324 116 782 206 581 115 786 174 925 263
36 23 39 19 54 -62z"/>
<path d="M1660 5614 c-22 -75 -24 -189 -6 -278 l18 -83 -26 -51 c-76 -151 -75
-361 3 -527 62 -132 189 -227 309 -229 97 -2 105 3 131 86 34 107 103 273 158
379 26 52 49 97 51 101 2 4 -16 12 -40 18 -120 32 -297 161 -403 293 -78 97
-118 165 -156 261 l-27 70 -12 -40z m226 -547 c54 -46 23 -130 -47 -130 -66 0
-95 91 -43 132 34 27 57 26 90 -2z m-108 -300 c61 -65 150 -110 244 -122 l47
-6 -11 -30 c-20 -57 -112 -67 -199 -21 -89 46 -157 155 -174 277 l-7 50 37
-60 c20 -33 48 -73 63 -88z"/>
<path d="M5135 5528 c-51 -63 -191 -180 -309 -259 -415 -280 -809 -356 -983
-192 l-33 31 0 -25 c0 -45 32 -167 61 -230 35 -79 112 -161 189 -202 37 -20
60 -39 60 -49 1 -28 62 -140 105 -191 169 -203 465 -251 678 -110 144 95 239
257 253 432 8 87 -15 215 -52 293 -28 59 -29 67 -10 97 8 12 29 64 46 116 25
75 33 117 37 208 7 124 2 134 -42 81z m-582 -699 c21 -26 22 -80 3 -118 -33
-63 -124 -85 -170 -42 -80 76 10 219 119 190 17 -5 38 -18 48 -30z m428 -179
c-26 -84 -73 -153 -137 -203 -55 -42 -154 -77 -219 -77 -47 0 -160 32 -188 54
-15 12 -8 14 59 20 202 18 386 129 475 284 23 40 24 40 27 16 2 -14 -6 -56
-17 -94z"/>
</g>
</svg>
